<!-- Generated by IcoMoon.io -->
<svg version="1.1" xmlns="http://www.w3.org/2000/svg" width="24" height="24" viewBox="0 0 24 24">
<title>android</title>
<path fill="#a4c639" d="M22.155 9.24c0-0.816-0.66-1.479-1.479-1.479s-1.482 0.663-1.482 1.482v6.202c0 0.819 0.665 1.481 1.485 1.482 0.816 0 1.479-0.663 1.479-1.482v-6.205zM5.381 8.045l0.003 9.612c0 0.885 0.705 1.59 1.575 1.59h1.065v3.285c0 0.825 0.66 1.485 1.47 1.485s1.47-0.66 1.485-1.47v-3.285h1.995v3.285c0 0.825 0.66 1.485 1.47 1.485 0.825 0 1.485-0.66 1.485-1.485v-3.285h1.080c0.87 0 1.575-0.705 1.575-1.575v-9.646l-13.245 0.003zM15.040 5.111c-0.311 0-0.561-0.249-0.561-0.559 0-0.306 0.25-0.56 0.559-0.561 0.306 0 0.558 0.255 0.558 0.559 0 0.309-0.251 0.56-0.558 0.56zM8.964 5.109c-0.309 0-0.56-0.249-0.56-0.558 0-0.308 0.251-0.559 0.558-0.559 0.311 0 0.561 0.255 0.561 0.57s-0.255 0.57-0.57 0.57zM15.254 2.222l1.035-1.89c0.060-0.105 0.015-0.225-0.075-0.285-0.105-0.045-0.225-0.015-0.285 0.090l-1.050 1.905c-0.869-0.406-1.859-0.631-2.894-0.631s-2.019 0.215-2.895 0.603l-1.035-1.905c-0.054-0.098-0.18-0.135-0.279-0.080-0.101 0.045-0.135 0.18-0.081 0.27l1.035 1.875c-2.033 1.050-3.405 3.045-3.405 5.34h13.344c0-2.295-1.371-4.29-3.401-5.34zM3.315 7.755c-0.819 0-1.482 0.666-1.482 1.485v6.201c0 0.821 0.665 1.482 1.485 1.482 0.816 0 1.479-0.66 1.479-1.482v-6.198c0-0.818-0.663-1.481-1.48-1.481z"></path>
</svg>
