<!-- Generated by IcoMoon.io -->
<svg version="1.1" xmlns="http://www.w3.org/2000/svg" width="24" height="24" viewBox="0 0 24 24">
<title>apple</title>
<path fill="#999" d="M12.168 6.885c0.81 0 2.316-1.114 4.275-1.114 3.375 0 4.703 2.4 4.703 2.4s-2.595 1.327-2.595 4.548c0 3.63 3.232 4.875 3.232 4.875s-2.261 6.36-5.313 6.36c-1.403 0-2.493-0.945-3.971-0.945-1.506 0-3 0.975-3.972 0.975-2.79 0-6.31-6.045-6.31-10.89 0-4.785 2.982-7.275 5.778-7.275 1.815 0 3.228 1.035 4.173 1.035zM13.013 2.088c1.575-2.078 3.769-2.088 3.769-2.088s0.326 1.954-1.24 3.837c-1.665 2.010-3.57 1.68-3.57 1.68s-0.36-1.581 1.050-3.429z"></path>
</svg>
